<?xml version="1.0" encoding="UTF-8"?><svg xmlns="http://www.w3.org/2000/svg" viewBox="0 0 1085.69 1171.05"><defs><style>.e{fill:#038c40;}.f{fill:#fff200;}</style></defs><g id="a"><path class="e" d="M863.2,471.94V222.46H222.49v249.48s-10.19,371.67,320.35,475.27c330.54-103.61,320.35-475.27,320.35-475.27"/></g><g id="b"><g><g><path class="f" d="M340.61,422.82c-8.82,0-14.27,7.04-17.63,13.25-2.19,4.04-5.35,9.14-10.64,11.81l-20.58,10.38c-1.15,.58-2.47,.69-3.7,.31-6.06-1.88-14.23-9.47-17.41-2.65-4.1-.35-7.78,2.22-7.06,7.1,2.23-2.18,6.34-2.64,12.91-1.09h-3.04c-6.21-.01-8.04,4.58-6.53,7.35,1.39-1.6,4.09-2.23,9.32-2.23h15.42l50.86-16.9c6.73-2.25,10.45-8.8,10.45-15.11s-3.87-12.22-12.37-12.22Z"/><path class="f" d="M359.62,368.88c3.51,0,11.93,.05,11.93,.05-6.93-8.38-14.54-13.01-25.39-12.66l2.1-5.52c-27.92-.63-20.74,20.94-34.57,20.93h-5.01c-1.81,6.25,.65,12.19,7.18,13.92,.41-4.7,5.03-7.15,9.49-7.15,5.01,0,8.76,2,8.76,6.06,0,4.95-5.11,7.67-10.29,7.67-2.35,0-4.7-.58-6.59-1.8-2.04,3.77-.51,10.35,2.83,13.03,3.51-8.09,27.61,.81,32.35-23.56,.99,1.87,1.56,3.95,1.56,5.79,0,13.8-26.9,21.75-30.95,37.94,5.01-5.33,10.91-7.95,17.61-7.95,12.68,0,21.4,9.65,19.25,23.64,4.4-5.07,7-16.1,5.33-21.73l11.07,17.2c3.86-12.63-2.01-34.13-7.48-42.76h9.58c-3.38-10.4-11.99-20.06-18.76-23.09Zm-31.83-.03c4.07-2.73,9.85-4.24,15.2-4.3-3.58,12.14-12.81,8.24-15.2,4.3Z"/><path class="f" d="M463.02,404.19h15.75c8.73,0,13.6-5.83,13.6-13.03s-4.49-13.03-13.6-13.03l-77.7,.02c-4.86,0-8.1-3.63-8.1-8.1s3.24-7.96,8.1-7.96h13.07c22.75,0,34.22,4.26,55.02,4.26,16.86,0,20.38-5.02,23.3-10.05h-91.83c-9.11,0-14.16,6.17-14.16,13.75s5.04,13.87,14.16,13.87h77.99c5.15-.01,7.54,3.24,7.54,7.24s-2.38,7.25-7.54,7.25h-98.53c3.32,9.52,5.45,22.09,4.28,32.3l37.5-9.68c-3.98-5.14-6.1-9.53-6.69-14.18l15.53,15.75c7.42,7.52,18.2,14.87,27.88,14.87,8.87,0,13.31-3.5,18.41-8.87l4.69,20.47c1.5,6.57-1.52,9.92-9.36,9.92-5.5,0-12.81-5.08-17.9-5.08-1.6,0-2.95,.7-3.89,2.79-4.45-.28-7.83,2.55-7.01,6.69,2.23-2.05,6.34-2.5,12.91-1.03h-3.04c-6.21,0-8.04,4.32-6.53,6.93,1.65-1.79,5.4-2.09,9.32-2.09h32.58c5.02-14.68,5.12-37.3-1.14-50.2-9.9,0-23.1-5.99-24.62-12.81Z"/><path class="f" d="M425.48,427.52l-21.47,5.54,9.59,18.45c2.54,4.88-.51,7.48-6,7.48-6.01,0-12.85-5.08-17.27-5.08-1.6,0-2.95,.7-3.89,2.79-4.45-.28-7.83,2.55-7.01,6.69,2.23-2.05,6.34-2.5,12.91-1.03h-3.04c-6.21,0-8.04,4.32-6.53,6.93,1.65-1.79,5.4-2.09,9.32-2.09h32.58c2.09-3.24,3.89-6.95,4.3-10.94-11.68-8.93-10.22-17.58-3.5-28.74Z"/></g><path class="f" d="M282.19,392.62l3.8,12.72c.27,.92,.96,1.68,1.88,1.95,.46,.14,1.05,.23,1.8,.23l34.13,.21c-4.36,4.28-7.59,10.36-8.47,16.28l-33.2-9.84c-.84-.25-1.58-.75-2.12-1.43-9.39-11.99-17.82-3.86-17.82-3.86,.01-3.87,3.93-8.16,13.12-7.48-4.48-3.6-9.86-5.99-13.69-4.87,3.34-3.34,7.57-5.7,16.26,.24-2.14-11.01-7.7-10.47-7.7-10.47,0,0,8.98-3.74,12.02,6.32Z"/></g></g><g id="c"><path class="f" d="M479.14,261.13v6.24h-13.43v-6.24h-13.43v6.24h-13.43v-6.24h-13.43v6.24h-13.43v-6.24h-13.43v6.24h-13.43v-6.24h-13.43v6.24h-13.43v-6.24h-13.43v6.24h-13.43v-6.24h-13.43v6.24h-13.43v-6.24h-13.43v6.24h-13.43v-6.24h-13.43v71.95h92.41v-11.49c0-12,9.73-21.73,21.73-21.73s21.73,9.73,21.73,21.73v11.49h92.4v-71.95h-13.43Zm-181.07,53.5h-8.82v-24.53c0-2.43,1.97-4.41,4.41-4.41s4.41,1.97,4.41,4.41v24.53Zm33.76,0h-8.82v-24.53c0-2.43,1.97-4.41,4.41-4.41s4.41,1.97,4.41,4.41v24.53Zm102.02,0h-8.82v-24.53c0-2.43,1.97-4.41,4.41-4.41s4.41,1.97,4.41,4.41v24.53Zm33.76,0h-8.82v-24.53c0-2.43,1.97-4.41,4.41-4.41s4.41,1.97,4.41,4.41v24.53Z"/></g><g id="d"><g><path class="f" d="M813.75,316.78c-6.09-4.62-15.49-10.95-27.21-15.27-7.83,5.75-13.85,14.79-18.69,27.89,13.7-5.25,30.47-9.87,45.9-12.62Z"/><path class="f" d="M644.72,425.98h-61.53l-73.9,73.9h5.99c58.83,0,100.18-23.53,129.44-73.9Z"/><path class="f" d="M715.84,423.98c-7.5,1.74-16.12,2-27.07,2h-31.28c-31.57,58.01-77.57,85.06-142.22,85.06h-17.15l-53.22,53.22h55.98c89.9,0,170.76-35.21,214.95-140.28Z"/><path class="f" d="M433.75,575.41l-113.54,113.54,28.29,.28c31.78,0,45.33-7.06,70.89-32.62l81.5-81.2h-67.14Z"/><path class="f" d="M721.72,375.95c-21.9,0-37.8-16.41-37.8-39.02,0-24.28,20.69-47.08,48.39-47.08,10.24,0,17,2.54,21.91,7.16-4.93,15.38-21.12,18.91-31.67,5.29-9.25,2.49-27.48,13.16-27.48,34.63,0,16.41,10.96,27.87,26.64,27.87,19.02,0,27.22-13.39,33.68-33.51,3.56-11.09,9.28-25.16,20.45-35.36-10.27-18.91-27.62-24.37-43.77-24.37-29.16,0-53.29,15.64-69.99,55.25-10.56,25.05-21.3,41.58-39.62,59.89l-28.13,28.13h97.56c21.11,0,30.91-3.59,42.08-9.89-46.88,142.64-150.39,166.91-216.93,170.1l-50.39,50.39c13.44,.64,26.65,.76,39.15,.44l46.69,130.28c4.63,12.86,4.95,18.77,2.75,23.55-4.52-2.22-8.05-5.98-12.86-19.42l-16.19-45.17-26.73,27.11c-6.45,6.56-10.78,13.13-13.27,18.69-5.12-6.88-1.53-19.01,7.85-28.51l28.13-28.52-9.82-27.41c-46.63,13.26-80.78,56.16-80.78,107.04,0,61.45,49.82,111.27,111.27,111.27s111.27-49.82,111.27-111.27c0-49.69-32.57-91.76-77.52-106.05l-16.21-45.17c-3.65,.56-7.34,1.06-11.06,1.53l14.48,40.4c-6.79-1.29-13.79-1.98-20.95-1.98-2.92,0-5.8,.13-8.66,.35l-16.93-47.19c191.9-9.51,266.99-134.54,267.7-282.87-6.67-1.23-13.07-3.07-19.59-5.81-6.59,19.74-17.18,39.25-43.65,39.25Zm-141.25,341.41c12.63,6.79,18.88,13.42,18.08,26.28-4.83-5.63-10.69-10.08-16.95-13.45l-33.12-17.81-5.44-15.15,37.42,20.13Z"/></g></g></svg>