<svg width="84" height="84" viewBox="0 0 84 84" fill="none" xmlns="http://www.w3.org/2000/svg">
<path fill-rule="evenodd" clip-rule="evenodd" fill="red" d="M82 42C82 64.0914 64.0914 82 42 82C19.9086 82 2 64.0914 2 42C2 19.9086 19.9086 2 42 2C64.0914 2 82 19.9086 82 42ZM84 42C84 65.196 65.196 84 42 84C18.804 84 0 65.196 0 42C0 18.804 18.804 0 42 0C65.196 0 84 18.804 84 42ZM58.952 34.04C57.384 33.208 55.576 32.792 53.528 32.792C51.064 32.792 48.872 33.384 46.952 34.568C45.8763 35.2426 44.9668 36.0522 44.2235 36.9969C43.6191 36.0285 42.8486 35.2348 41.912 34.616C40.152 33.4 38.088 32.792 35.72 32.792C33.608 32.792 31.72 33.256 30.056 34.184C29.1186 34.6987 28.3026 35.3558 27.608 36.1556V33.176H20.456V59H27.944V46.04C27.944 44.504 28.184 43.24 28.664 42.248C29.144 41.256 29.816 40.52 30.68 40.04C31.544 39.528 32.52 39.272 33.608 39.272C35.176 39.272 36.376 39.768 37.208 40.76C38.072 41.752 38.504 43.288 38.504 45.368V59H45.992V46.04C45.992 44.504 46.232 43.24 46.712 42.248C47.192 41.256 47.864 40.52 48.728 40.04C49.592 39.528 50.568 39.272 51.656 39.272C53.224 39.272 54.44 39.768 55.304 40.76C56.168 41.752 56.6 43.288 56.6 45.368V59H64.088V44.216C64.088 41.592 63.624 39.448 62.696 37.784C61.8 36.088 60.552 34.84 58.952 34.04Z"/>
</svg>
